<svg id="Layer_1" data-name="Layer 1" xmlns="http://www.w3.org/2000/svg" viewBox="0 0 1842.08 698.76"><defs><linearGradient id="linear-gradient" x1="114.46" y1="437.05" x2="1747.29" y2="437.05" gradientTransform="matrix(1 0 0 -1 0 875.89)" gradientUnits="userSpaceOnUse"><stop offset="0" stop-color="#13294b"/><stop offset="1" stop-color="#1c3775"/></linearGradient><linearGradient id="linear-gradient-2" x1="1299.19" y1="437.03" x2="1906.52" y2="437.03" gradientTransform="matrix(1 0 0 -1 0 875.89)" gradientUnits="userSpaceOnUse"><stop offset="0" stop-color="#d22730"/><stop offset="1" stop-color="#b12328"/></linearGradient><style>.cls-1{fill:#fff}</style></defs><path class="cls-1" d="M1780.54 114.49a126 126 0 0 1 126 126v396.73a126 126 0 0 1-126 126H240.46a126 126 0 0 1-126-126V240.46a126 126 0 0 1 126-126h1540.08m0-25H240.46a151 151 0 0 0-151 151v396.76a151 151 0 0 0 151 151h1540.08a151 151 0 0 0 151-151V240.46a151 151 0 0 0-151-151Z" transform="translate(-89.46 -89.46)"/><path d="M1712.48 182.94a65 65 0 0 0-7.75 21.37c1.7 1.43 1.74 2.14.09 7.9s-3.71 13.44-8.53 14c-1.83 14.82-9.87 30.49-12 51.39s-3.66 48-26.61 75.22c0 0 .27 18.89-.4 28.39 14.69 17.73 10.36 47.91-14.6 64.87-20.94 14.29-45 23.13-82.77 84-6.47 9.6-10.45 9.29-10.45 9.29s-23.7 14.1-35.13 17.23a5 5 0 0 1-5-.54s-10 7-26.88 8.39c-10.18 23.84-30.58 29.34-38.44 35.9s-6.56 7.63-20.89 19.33-12.23 8.57-39.2 29.77-40.53 30.76-47.14 35.14c.54 3 1.25 6.61 1.25 6.61s-.4 5.53 9.33 0c8-3.57 13.39 3.52 15.89 7.41s2.5 9-5.84 19.24c-8.49 10.36-12.6 17.63-28.85 32.86a22.54 22.54 0 0 1-2.27 1.87c-10.4 7.5-19.87 10.63-27.1 10.63H240.46a126 126 0 0 1-126-126V240.46a126 126 0 0 1 126-126h1465c15 .26 29.5 4.46 40.82 11.29 5.17 16.52-9.96 42.07-33.8 57.19Z" transform="translate(-89.46 -89.46)" style="fill:url(#linear-gradient)"/><path d="M1906.52 240.46v396.76a126 126 0 0 1-126 126h-481.33c7.23 0 16.7-3.13 27.1-10.63a22.54 22.54 0 0 0 2.27-1.87c16.25-15.23 20.36-22.5 28.85-32.86 8.34-10.27 8.34-15.4 5.84-19.24s-7.94-11-15.89-7.41c-9.73 5.53-9.33 0-9.33 0s-.71-3.57-1.25-6.61c6.61-4.38 20.18-13.88 47.14-35.14s24.87-18.07 39.2-29.77S1436.2 607 1444 600.36s28.26-12.06 38.44-35.9c16.92-1.42 26.88-8.39 26.88-8.39a5 5 0 0 0 5 .54c11.43-3.13 35.13-17.23 35.13-17.23s4 .31 10.45-9.29c37.81-60.89 61.83-69.73 82.77-84 25-17 29.29-47.14 14.6-64.87.67-9.5.4-28.39.4-28.39 23-27.23 24.51-54.33 26.61-75.22s10.13-36.57 12-51.39c4.82-.53 6.83-8.21 8.53-14s1.61-6.47-.09-7.9a65 65 0 0 1 7.75-21.37c23.84-15.12 39-40.67 33.79-57.16-11.32-6.83-25.87-11-40.82-11.29h75.09a126 126 0 0 1 125.99 125.96Z" transform="translate(-89.46 -89.46)" style="fill:url(#linear-gradient-2)"/><path class="cls-1" d="M1712.48 182.94a65 65 0 0 0-7.75 21.37c1.7 1.43 1.74 2.14.09 7.9s-3.71 13.44-8.53 14c-1.83 14.82-9.87 30.49-12 51.39s-3.66 48-26.61 75.22c0 0 .27 18.89-.4 28.39 14.69 17.73 10.36 47.91-14.6 64.87-20.94 14.29-45 23.13-82.77 84-6.47 9.6-10.45 9.29-10.45 9.29s-23.7 14.1-35.13 17.23a5 5 0 0 1-5-.54s-10 7-26.88 8.39c-10.18 23.84-30.58 29.34-38.44 35.9s-6.56 7.63-20.89 19.33-12.23 8.57-39.2 29.77-40.53 30.76-47.14 35.14c.54 3 1.25 6.61 1.25 6.61s-.4 5.53 9.33 0c8-3.57 13.39 3.52 15.89 7.41s2.5 9-5.84 19.24c-8.49 10.36-12.6 17.63-28.85 32.86a22.54 22.54 0 0 1-2.27 1.87c-10.4 7.5-19.87 10.63-27.1 10.63-17.55 0-21.7-18.62 6.56-37.73 0 0-14.28-5-20.09-9.28-10.71-2.5-36-19.42-8.44-49.2s25.36-29.38 33.76-37.59c0 0 33.7-32.68 37.23-37.68s7.5-8.75 11.07-17.1c2.19-5.13.18-19.55-1.7-20.26s-18.39-3.13-29.06-4-32.59-6.47-43.88-6.29-15.68 1.29-17.06 1.16-4.91 0-7.19-3.44c-8.25 1.79-24.86 6.25-40.13 5.85s-38.88-6.7-50.4-7.1-13-1.07-15.14-.85c-2.81 2.95-13.88 12-24.15 12.23-6.56 0-9.51-7.72-18.3-13.08s-19.82-10-25-10.84-11.56-1.66-20.8-19a17.44 17.44 0 0 1-1.12-2.68c-5.09-16.61 19-14 30.27-9.46 12.23 4.9 28.21 7.32 32.72 12.63 8.49-3.53 10.32-.67 20.27 1.7 3.57.84 4.07 2.5 4.07 2.5s36.38-4.92 54.91-13.71c3.12-1.56 12.18-1.07 18.3-.94s5.36 2.55 26.34 2.23c3.17-.35 4.42.23 4.77 1.08 4.38-1.43 35-17.1 60-20.23a10.72 10.72 0 0 1 4.37 0s11.07-9.28 30.76-7.1 31.56 2 41.56.94c4.51-.53 8.58 1.48 10.45 1.16s13.66-3.3 21-11.29c3.75-4.07 7.36-3.93 9.24-5s7.23-9.68 13.66-12.67c1.7-3.76 5.62-8.31 7.68-10.67 1.65-3.13 2.19-6 7.45-13.31a83.41 83.41 0 0 0 0-10s-41.16 15.58-68.88 4.68c-25.49-2.5-34.69-19.73-36.65-28.52 0 0-10.27-1-10.18-7.15-5.4.18-8.17-2.81-8.31-5.62 0 0-10.13 9.28-10.89-3.3-.13-3.84 9.6-17.64 30-20.05 6.74-.71 6.16.94 9.69 1s3.79 0 5.13 0 7.91 2.37 7.91 10.49c0 3.66 1.6 3.71 2 5.76h2.59a56.44 56.44 0 0 1 17.41 3.13c5.09 1.83 6.56 2.05 13.93 2.05s17.59-1.83 25.71-1.83c7.06 0 6.88 1.34 6.7 1.79a70 70 0 0 0 9.33-4.56c3-2 3.7-1.2 3.7-1.2s23.89-37.37 48.53-37.55 24.42 2 27.72 4.29 4.29 1.87 6.66 1.87a10.58 10.58 0 0 1 7.59 3c2.5-6.56 4.64-12.5 4.68-12.94s-2.94-.49-3-3.39v-2.68s-7 .84-3.93-6.48 3.08-6.47 4.64-12.27 3.53-13 11.43-20.72c3.48-3.93 4.47-5.53 6.52-7.77s14.51-15.67 33.17-15.8 25.85 12 25.85 12 15.53-20.35 33.08-54.06c-9.06-7.05-4.56-15.22-3.44-20.22a22 22 0 0 0 .43-3.43 69.6 69.6 0 0 1-31.21-13.36c7.59-48 40-66.22 71.33-66.78h2.94c15 .26 29.5 4.46 40.82 11.29 5.28 16.41-9.85 41.96-33.69 57.08Z" transform="translate(-89.46 -89.46)"/><g id="European"><path class="cls-1" d="M257.25 220.85a3.15 3.15 0 0 1 3.14-3.16h67.73a3.15 3.15 0 0 1 3.16 3.14v13.66a3.15 3.15 0 0 1-3.16 3.16h-49.24v27.28H320a3.28 3.28 0 0 1 3.16 3.16v13.81a3.15 3.15 0 0 1-3.16 3.16h-41.12v29.11h49.24a3.15 3.15 0 0 1 3.16 3.16V331a3.15 3.15 0 0 1-3.15 3.17h-67.72a3.15 3.15 0 0 1-3.16-3.16ZM350.07 220.85a3.26 3.26 0 0 1 3.16-3.16H369a3.15 3.15 0 0 1 3.16 3.14v68c0 14.14 9.65 25.28 24.12 25.28S420.6 303 420.6 289.05v-68.2a3.15 3.15 0 0 1 3.14-3.16h15.82a3.26 3.26 0 0 1 3.16 3.16v69.2c0 25.29-20.12 45.75-46.41 45.75-26.11 0-46.24-20.46-46.24-45.75ZM468 220.85a3.15 3.15 0 0 1 3.14-3.16h47.6c20 0 36.26 16 36.26 35.76 0 15.31-10.14 27.78-24.62 33.61l22.79 42.25a3.16 3.16 0 0 1-1 4.35 3.22 3.22 0 0 1-1.84.48h-17.45a2.85 2.85 0 0 1-2.66-1.5l-22.13-44.09h-18.46V331a3.28 3.28 0 0 1-3.16 3.17h-15.31A3.15 3.15 0 0 1 468 331Zm48.91 49.9c8.81 0 16.47-7.65 16.47-17 0-8.81-7.66-16.13-16.47-16.13h-27.12v33.1ZM626.85 216a59.62 59.62 0 1 1-.2 0Zm0 98.15a38.26 38.26 0 1 0 0-76.52c-21 0-38.09 17.47-38.09 38.43a38.19 38.19 0 0 0 38.09 38.11ZM705.19 220.85a3.15 3.15 0 0 1 3.14-3.16h39.12c20.46 0 37.26 16.63 37.26 36.76a37.41 37.41 0 0 1-37.1 37.43h-20.79V331a3.28 3.28 0 0 1-3.16 3.17h-15.31a3.15 3.15 0 0 1-3.16-3.16Zm40.93 50.73a17.14 17.14 0 0 0 17.13-17.15v-.15c0-9.15-7.82-16.13-17.13-16.13h-19.3v33.43ZM800.33 220.85a3.15 3.15 0 0 1 3.14-3.16h67.73a3.15 3.15 0 0 1 3.16 3.14v13.66a3.15 3.15 0 0 1-3.16 3.16H822v27.28h41.09a3.28 3.28 0 0 1 3.16 3.16v13.81a3.15 3.15 0 0 1-3.16 3.16H822v29.11h49.2a3.15 3.15 0 0 1 3.16 3.16V331a3.15 3.15 0 0 1-3.15 3.17h-67.72a3.15 3.15 0 0 1-3.16-3.16ZM879.68 329.81l51.73-112a3 3 0 0 1 2.83-1.83h1.67a2.82 2.82 0 0 1 2.82 1.83l51.24 112a2.93 2.93 0 0 1-2.83 4.33h-14.47c-2.49 0-3.66-1-4.82-3.33l-8.16-18H910l-8.15 18a5 5 0 0 1-4.82 3.33h-14.52a2.94 2.94 0 0 1-2.83-4.33Zm71.86-35.43-16.63-36.6h-.5l-16.31 36.6ZM1001.77 219a3.13 3.13 0 0 1 3.16-3h4.16l69.2 73.53h.17v-68.7a3.15 3.15 0 0 1 3.14-3.16h15.33a3.28 3.28 0 0 1 3.16 3.16v112a3.13 3.13 0 0 1-3.16 3h-4l-69.53-76.36h-.17V331a3.15 3.15 0 0 1-3.15 3.17h-15.15a3.28 3.28 0 0 1-3.16-3.17Z" transform="translate(-89.46 -89.46)"/></g><g id="League"><path class="cls-1" d="M257.25 383.77a3.15 3.15 0 0 1 3.16-3.16h15.31a3.28 3.28 0 0 1 3.16 3.16v93.33h42.42a3.15 3.15 0 0 1 3.16 3.16v13.64a3.15 3.15 0 0 1-3.14 3.16h-60.91a3.15 3.15 0 0 1-3.16-3.14V383.77ZM337.92 383.77a3.15 3.15 0 0 1 3.16-3.16h67.71a3.15 3.15 0 0 1 3.16 3.16v13.65a3.15 3.15 0 0 1-3.16 3.16h-49.24v27.28h41.09a3.28 3.28 0 0 1 3.16 3.14v13.81a3.15 3.15 0 0 1-3.16 3.16h-41.09v29.13h49.24a3.15 3.15 0 0 1 3.16 3.16v13.64a3.15 3.15 0 0 1-3.14 3.16h-67.73a3.15 3.15 0 0 1-3.16-3.14V383.77ZM417.26 492.74l51.74-112a3 3 0 0 1 2.83-1.83h1.66a2.83 2.83 0 0 1 2.83 1.83l51.24 112a2.93 2.93 0 0 1-2.83 4.32h-14.47c-2.5 0-3.66-1-4.83-3.32l-8.15-18h-49.74l-8.15 18a5 5 0 0 1-4.82 3.32h-14.48a2.94 2.94 0 0 1-3.17-2.69 2.88 2.88 0 0 1 .34-1.63Zm71.87-35.44-16.64-36.59H472l-16.3 36.59ZM589.93 379a62.82 62.82 0 0 1 40.59 15.47 3.23 3.23 0 0 1 .28 4.55l-.11.11-10.32 10.81c-1.33 1.33-2.83 1.33-4.32 0a37.71 37.71 0 0 0-25.12-9.65c-20.8 0-37.27 17.8-37.27 38.6 0 20.63 16.47 38.09 37.43 38.09a52.25 52.25 0 0 0 19.8-4.15v-14.19h-13.31a3 3 0 0 1-3.16-2.84v-13.3a3.06 3.06 0 0 1 3-3.16h32.14a3.12 3.12 0 0 1 3 3.16v42.59a3.22 3.22 0 0 1-1.33 2.66 84.13 84.13 0 0 1-41.26 10.81 59.81 59.81 0 0 1 0-119.61ZM652 383.77a3.28 3.28 0 0 1 3.16-3.16H671a3.15 3.15 0 0 1 3.16 3.16v68c0 14.14 9.65 25.29 24.12 25.29S722.5 466 722.5 452v-68.23a3.15 3.15 0 0 1 3.16-3.16h15.8a3.28 3.28 0 0 1 3.16 3.16V453c0 25.28-20.12 45.75-46.41 45.75C672.1 498.73 652 478.26 652 453ZM769.9 383.77a3.15 3.15 0 0 1 3.16-3.16h67.71a3.15 3.15 0 0 1 3.16 3.16v13.65a3.15 3.15 0 0 1-3.16 3.16h-49.24v27.28h41.08a3.28 3.28 0 0 1 3.17 3.16v13.81a3.15 3.15 0 0 1-3.16 3.16h-41.09v29.11h49.24a3.15 3.15 0 0 1 3.16 3.16v13.64a3.15 3.15 0 0 1-3.14 3.16h-67.73a3.15 3.15 0 0 1-3.16-3.14V383.77Z" transform="translate(-89.46 -89.46)"/></g><g id="of"><path class="cls-1" d="M914.82 433.4a31.69 31.69 0 1 1-.1 0Zm0 52.17a20.34 20.34 0 1 0-20.25-20.43v.18a20.38 20.38 0 0 0 20.25 20.25ZM958.22 436.85a1.68 1.68 0 0 1 1.68-1.68h36a1.69 1.69 0 0 1 1.69 1.68v7.25a1.68 1.68 0 0 1-1.68 1.68h-26.2v16.62h21.84a1.75 1.75 0 0 1 1.68 1.68v7.25a1.73 1.73 0 0 1-1.68 1.68h-21.84v22.37a1.73 1.73 0 0 1-1.68 1.68h-8.13a1.68 1.68 0 0 1-1.68-1.68Z" transform="translate(-89.46 -89.46)"/></g><g id="Football"><path class="cls-1" d="M257.25 546.7a3.15 3.15 0 0 1 3.16-3.16h67.71a3.15 3.15 0 0 1 3.16 3.16v13.64a3.15 3.15 0 0 1-3.14 3.16h-49.26v31.28H320a3.28 3.28 0 0 1 3.16 3.16v13.64a3.28 3.28 0 0 1-3.16 3.16h-41.12v42.09a3.28 3.28 0 0 1-3.16 3.16h-15.31a3.15 3.15 0 0 1-3.16-3.16ZM402.47 541.88a59.89 59.89 0 1 1-59.72 60.06v-.06a59.77 59.77 0 0 1 59.56-60Zm0 98.15a38.34 38.34 0 0 0 38.26-38.1c0-21-17.3-38.43-38.26-38.43s-38.1 17.47-38.1 38.43a38.21 38.21 0 0 0 38.1 38.07ZM535.54 541.88a59.89 59.89 0 1 1-59.72 60.06v-.06a59.77 59.77 0 0 1 59.56-60Zm0 98.15a38.34 38.34 0 0 0 38.26-38.1c0-21-17.3-38.43-38.26-38.43s-38.1 17.47-38.1 38.43a38.21 38.21 0 0 0 38.1 38.07ZM631.68 563.5h-25.45a3.15 3.15 0 0 1-3.17-3.15V546.7a3.17 3.17 0 0 1 3.17-3.16h72.69a3.15 3.15 0 0 1 3.16 3.16v13.64a3.15 3.15 0 0 1-3.14 3.16h-25.47v93.33a3.28 3.28 0 0 1-3.16 3.16h-15.47a3.28 3.28 0 0 1-3.16-3.16ZM699.37 546.7a3.15 3.15 0 0 1 3.16-3.16h38.1c19.79 0 35.1 13.31 35.1 30.78 0 12.81-10.48 22.79-18.3 26.45 8.82 2.83 21.62 11.81 21.62 27.11 0 18.64-16 32.11-36.26 32.11h-40.26a3.15 3.15 0 0 1-3.16-3.16Zm39.26 45.75c8.48 0 14.31-6.65 14.31-15s-5.83-14.14-14.31-14.14h-17.8v29.11Zm2.37 47.91a14.84 14.84 0 0 0 15-14.68v-.46c0-8.32-8.32-14.47-17-14.47h-18.17v29.61ZM786.86 655.66l51.74-111.95a3 3 0 0 1 2.82-1.83h1.67a2.83 2.83 0 0 1 2.83 1.83l51.23 111.95a3 3 0 0 1-1.19 4 2.88 2.88 0 0 1-1.63.34h-14.48c-2.49 0-3.65-1-4.82-3.33l-8.15-18h-49.74l-8.16 18a5 5 0 0 1-4.82 3.33h-14.47a2.94 2.94 0 0 1-2.83-4.33Zm71.87-35.43-16.64-36.6h-.5l-16.3 36.6ZM912.28 546.7a3.15 3.15 0 0 1 3.16-3.16h15.31a3.28 3.28 0 0 1 3.16 3.16V640h42.42a3.15 3.15 0 0 1 3.16 3.14v13.66a3.15 3.15 0 0 1-3.16 3.16h-60.89a3.15 3.15 0 0 1-3.16-3.16ZM996.28 546.7a3.15 3.15 0 0 1 3.16-3.16h15.31a3.28 3.28 0 0 1 3.16 3.16V640h42.41a3.15 3.15 0 0 1 3.17 3.15v13.65a3.17 3.17 0 0 1-3.17 3.16h-60.88a3.15 3.15 0 0 1-3.16-3.16Z" transform="translate(-89.46 -89.46)"/></g></svg>